<?xml version="1.0" encoding="UTF-8" standalone="no"?>
<svg
   xmlns:dc="http://purl.org/dc/elements/1.1/"
   xmlns:cc="http://creativecommons.org/ns#"
   xmlns:rdf="http://www.w3.org/1999/02/22-rdf-syntax-ns#"
   xmlns:svg="http://www.w3.org/2000/svg"
   xmlns="http://www.w3.org/2000/svg"
   viewBox="0 0 566.93335 430.65332"
   height="430.65332"
   width="566.93335"
   xml:space="preserve"
   id="svg2"
   version="1.1"><metadata
     id="metadata8"><rdf:RDF><cc:Work
         rdf:about=""><dc:format>image/svg+xml</dc:format><dc:type
           rdf:resource="http://purl.org/dc/dcmitype/StillImage" /></cc:Work></rdf:RDF></metadata><defs
     id="defs6" /><g
     transform="matrix(1.3333333,0,0,-1.3333333,0,430.65333)"
     id="g10"><g
       transform="scale(0.1)"
       id="g12"><path
         id="path14"
         style="fill:#ed3a27;fill-opacity:1;fill-rule:nonzero;stroke:none"
         d="m 190.148,531.859 c 155.512,-46.55 216.688,-104.769 206.911,-198.23 -6.028,-57.57 -40.461,-104.348 -94.422,-128.32 -29.746,-13.207 -69.59,-20.707 -101.379,-19.118 -48.934,1 -95.188,12.008 -138.008,32.86 -15.4766,7.527 -38.2695,22.488 -56.00781,36.719 l -0.0625,0.058 c -8.29297,6.973 -9.27735,11.512 -3.60547,19.922 1.47266,2.281 4.15234,6.352 10.35938,15.719 5.3242,8.019 10.6445,16.101 10.9023,16.492 6.6368,10.019 13.6485,10.019 23.3204,3.367 0.0664,-0.047 0.9414,-0.687 3.4335,-2.539 1.9727,-1.457 3.1915,-2.367 3.4102,-2.527 44.0313,-32.953 94.879,-51.512 145.559,-52.571 69.359,2.149 118.265,33.278 126.132,79.489 8.653,50.832 -33.343,94.398 -115.367,118.32 -28.707,8.359 -91.406,31.871 -108.906,41.07 -61.5274,34.352 -91.1914,81.032 -88.1055,139.102 4.8633,80.398 78.5508,141.449 172.6525,143.488 41.351,0.801 82.738,-6.98 122.609,-22.82 14.375,-5.719 39.559,-18.738 48.641,-25.219 10.551,-7.449 10.551,-12.59 5.41,-22.23 -0.727,-1.25 -3.469,-5.211 -10.57,-15.379 l -0.032,-0.032 c -7.496,-10.718 -9.746,-13.96 -10.406,-15.05 -6.172,-8 -11.34,-10.461 -21.902,-4.102 -41.524,26.613 -83.629,39.16 -131.223,39.293 C 130.832,707.43 87.75,672.672 85.6797,626.539 85.6992,584.988 118.629,554.82 190.148,531.859" /><path
         id="path16"
         style="fill:#ed3a27;fill-opacity:1;fill-rule:nonzero;stroke:none"
         d="m 621.941,555.16 c 94.872,0 173.215,-76.59 173.567,-170.449 v -183.34 c 0,-10.59 -2.715,-13.082 -13.102,-13.082 H 738.82 c -10.488,0 -13.101,2.492 -13.101,13.082 V 384.16 c -0.235,56.602 -46.621,102.379 -103.778,102.379 -57.019,0 -103.339,-45.559 -103.781,-101.969 V 201.371 c 0,-9.109 -3.586,-13.082 -13.101,-13.082 h -43.692 c -10.383,0 -13.094,3.852 -13.094,13.082 v 560.918 c 0,9.633 2.711,13.07 13.094,13.07 h 43.692 c 9.367,0 13.101,-3.629 13.101,-13.07 V 520.891 c 29.844,22.07 66.043,34.269 103.781,34.269" /><path
         id="path18"
         style="fill:#ed3a27;fill-opacity:1;fill-rule:nonzero;stroke:none"
         d="m 1029.94,254.371 c -65.686,0 -118.905,52.141 -118.905,116.449 0,64.301 53.219,116.461 118.905,116.461 65.67,0 118.89,-52.16 118.89,-116.461 0,-64.308 -53.21,-116.449 -118.89,-116.449 z m 0.03,300.41 c -103.693,0 -187.775,-82.39 -187.775,-184.062 0,-101.649 84.086,-184.039 187.775,-184.039 103.7,0 187.78,82.39 187.78,184.039 0,101.672 -84.08,184.062 -187.78,184.062" /><path
         id="path20"
         style="fill:#ed3a27;fill-opacity:1;fill-rule:nonzero;stroke:none"
         d="m 2172.39,413.461 c 13.65,44.519 54.92,74.168 103.08,74.168 46.46,0 89.98,-31.731 104.94,-74.168 z M 2432,345.969 c 0.31,0 0.62,0.011 0.97,0.019 11.47,0.524 20.52,10.282 20.52,22.121 0,0.551 -0.01,1.063 -0.05,1.551 0.01,0.211 0.01,0.57 0.01,1.36 0,101.628 -79.67,184.039 -178.02,184.039 -98.35,0 -178.04,-82.418 -178.04,-184.039 0,-7.602 0.45,-15.149 1.33,-22.641 l 0.29,-2.391 h 0.04 c 4.93,-36.797 20.65,-70.328 45.11,-97.289 0.03,-0.051 0.04,-0.058 0.18,-0.199 27.26,-30 64.3,-50.559 105.54,-58.238 l 3.21,-0.602 v 0.102 c 1.45,-0.25 2.94,-0.481 4.82,-0.762 56.42,-6.789 103.89,2.34 142.41,21.73 10.42,5.25 19.36,10.879 26.84,16.52 2.63,1.98 4.89,3.832 6.77,5.488 1.15,1.012 1.94,1.731 2.35,2.153 9.95,10.257 10.39,14.711 4.44,23.968 -13.79,21.942 -21.51,32.672 -21.51,32.672 -5.41,6.75 -10.25,8.289 -17.13,2.207 -1.21,-1.058 -2.33,-1.769 -2.91,-2.41 -41.13,-36.519 -95.07,-43.68 -142.06,-33.848 -9.66,2.59 -18.72,5.891 -27.03,9.872 -32.09,16.089 -55.29,44.859 -61.96,78.636 h 263.05 c 0.21,-0.008 0.52,-0.019 0.83,-0.019" /><path
         id="path22"
         style="fill:#ed3a27;fill-opacity:1;fill-rule:nonzero;stroke:none"
         d="m 1455.6,255.309 c -63.38,0 -115.14,50.429 -116.73,113.48 v 6.012 c 1.57,62.98 53.34,113.418 116.73,113.418 64.49,0 116.76,-52.129 116.76,-116.449 0,-64.321 -52.27,-116.461 -116.76,-116.461 z m 0.03,300.421 c -43.2,0 -84.09,-14.871 -116.76,-41.531 v 28.461 c 0,9.899 -2.71,13.07 -13.1,13.07 h -41.56 c -10.39,0 -13.1,-2.91 -13.1,-13.07 V 13.0781 C 1271.11,3.44922 1273.82,0 1284.21,0 h 41.56 c 10.39,0 13.1,3.37109 13.1,13.0781 V 229.16 c 32.67,-26.672 73.56,-41.531 116.76,-41.531 101.91,0 184.53,82.402 184.53,184.051 0,101.648 -82.62,184.05 -184.53,184.05" /><path
         id="path24"
         style="fill:#ed3a27;fill-opacity:1;fill-rule:nonzero;stroke:none"
         d="m 1769.05,413.461 c 13.66,44.519 54.93,74.168 103.09,74.168 46.45,0 89.97,-31.731 104.93,-74.168 z m 259.61,-67.492 c 0.32,0 0.63,0.011 0.97,0.019 11.47,0.524 20.53,10.282 20.53,22.121 0,0.551 -0.01,1.063 -0.05,1.551 0.01,0.211 0.01,0.57 0.01,1.36 0,101.628 -79.68,184.039 -178.03,184.039 -98.34,0 -178.04,-82.418 -178.04,-184.039 0,-7.602 0.45,-15.149 1.34,-22.641 l 0.28,-2.391 h 0.05 c 4.92,-36.797 20.65,-70.328 45.1,-97.289 0.04,-0.051 0.05,-0.058 0.19,-0.199 27.25,-30 64.3,-50.559 105.54,-58.238 l 3.21,-0.602 v 0.102 c 1.44,-0.25 2.94,-0.481 4.82,-0.762 56.42,-6.789 103.89,2.34 142.4,21.73 10.42,5.25 19.37,10.879 26.84,16.52 2.63,1.98 4.89,3.832 6.78,5.488 1.15,1.012 1.93,1.731 2.34,2.153 9.95,10.257 10.39,14.711 4.45,23.968 -13.79,21.942 -21.51,32.672 -21.51,32.672 -5.41,6.75 -10.26,8.289 -17.15,2.207 -1.2,-1.058 -2.32,-1.769 -2.9,-2.41 -41.12,-36.519 -95.06,-43.68 -142.06,-33.848 -9.66,2.59 -18.72,5.891 -27.03,9.872 -32.08,16.089 -55.29,44.859 -61.96,78.636 h 263.05 c 0.21,-0.008 0.52,-0.019 0.83,-0.019" /><path
         id="path26"
         style="fill:#ed3a27;fill-opacity:1;fill-rule:nonzero;stroke:none"
         d="m 2549.02,187.48 h 107.27 v 225.981 h 274.73 v 107.84 h -274.73 v 133.531 h 283.57 V 761.828 H 2549.02 V 187.48" /><path
         id="path28"
         style="fill:#ed3a27;fill-opacity:1;fill-rule:nonzero;stroke:none"
         d="m 3175.23,278.602 c -55.28,0 -100.25,46.707 -100.25,104.117 0,57.41 44.97,104.121 100.25,104.121 55.74,0 101.09,-46.711 101.09,-104.121 0,-57.41 -45.35,-104.117 -101.09,-104.117 z m 0,309.609 c -53.57,0 -104.82,-21.063 -144.36,-59.359 -38.31,-39.661 -59.41,-91.551 -59.41,-146.133 0,-53.707 21.09,-105.598 59.4,-146.11 l 0.05,-0.078 c 40.01,-38.781 91.27,-60.152 144.32,-60.152 54.21,0 105.17,21.383 143.51,60.191 38.86,39.371 60.26,91.27 60.26,146.149 0,54.883 -21.4,106.781 -60.24,146.133 -36.95,38.277 -87.92,59.359 -143.53,59.359" /><path
         id="path30"
         style="fill:#ed3a27;fill-opacity:1;fill-rule:nonzero;stroke:none"
         d="m 3618.66,276.859 c -55.28,0 -100.27,46.7 -100.27,104.11 0,57.41 44.99,104.121 100.27,104.121 55.74,0 101.09,-46.711 101.09,-104.121 0,-57.41 -45.35,-104.11 -101.09,-104.11 z m 0,309.61 c -53.59,0 -104.84,-21.078 -144.37,-59.367 -38.31,-39.661 -59.4,-91.563 -59.4,-146.133 0,-53.707 21.08,-105.61 59.38,-146.117 l 0.07,-0.063 c 40.01,-38.801 91.26,-60.168 144.32,-60.168 54.2,0 105.16,21.379 143.5,60.199 38.86,39.36 60.27,91.27 60.27,146.149 0,54.883 -21.41,106.793 -60.25,146.133 -36.95,38.277 -87.92,59.367 -143.52,59.367" /><path
         id="path32"
         style="fill:#ed3a27;fill-opacity:1;fill-rule:nonzero;stroke:none"
         d="m 4057.88,280.262 c -52.52,0 -96.9,48.797 -96.9,106.59 0,57.769 44.38,106.578 96.9,106.578 52.53,0 96.89,-48.809 96.89,-106.578 0,-57.793 -44.36,-106.59 -96.89,-106.59 z m 96.89,479.41 v -208.16 h -0.49 c -28.01,25.789 -65.63,34.097 -101.59,34.097 -54.75,0 -100.46,-17 -138.26,-55.289 -38.31,-39.648 -55.06,-90.898 -55.06,-144.929 0,-54.02 16.68,-110.039 54.99,-149.711 l 0.03,-0.02 c 38.61,-38.269 89.58,-54.922 143.49,-54.922 30.29,0 65.44,4.121 96.48,34.684 l 0.41,0.43 v -27.454 h 97.2 v 571.274 h -97.2" /><path
         id="path34"
         style="fill:#ed3a27;fill-opacity:1;fill-rule:nonzero;stroke:none"
         d="m 2594.36,2792.98 h -936.75 v 207.64 c 0,24.44 20.05,44.25 44.77,44.25 h 423.6 423.61 c 24.72,0 44.77,-19.81 44.77,-44.25 z m 334.55,436.88 H 1323.05 l -288.63,-425.08 75.16,-1620.57 c 4.93,-106.31 92.55,-189.96 198.97,-189.96 h 301.83 v 602.12 c 0,25.41 -9.3,49.94 -26.16,68.96 l -81.07,91.5 c -19.67,22.19 -30.53,60.88 -30.53,90.54 v 565.13 c 0,23.18 18.8,41.98 41.98,41.98 h 78.07 v -483.62 c 0,-22.56 18.28,-40.84 40.83,-40.84 h 5.69 c 22.55,0 40.83,18.28 40.83,40.84 v 483.62 h 56.31 56.31 v -483.62 c 0,-22.56 18.28,-40.84 40.83,-40.84 h 5.69 c 22.55,0 40.83,18.28 40.83,40.84 v 483.62 h 78.06 c 23.19,0 41.99,-18.8 41.99,-41.98 v -565.13 c 0,-29.66 -10.86,-68.35 -30.53,-90.54 l -81.08,-91.5 c -16.85,-19.02 -26.15,-43.55 -26.15,-68.96 V 994.25 h 263.7 262.4 v 652.06 c 0,36.27 -17.63,65.36 -42.23,90.44 -14.07,10.13 -27.38,21.64 -39.87,34.31 -0.08,0.05 -0.16,0.11 -0.24,0.17 l -0.02,0.09 c -66.77,67.88 -109.19,170.2 -109.19,288.04 0,212.66 138.04,427.92 308.31,427.92 170.29,0 308.32,-215.26 308.32,-427.92 0,-117.84 -42.43,-220.16 -109.19,-288.04 l -0.03,-0.09 c -0.07,-0.06 -0.15,-0.12 -0.22,-0.17 -12.49,-12.67 -25.81,-24.18 -39.88,-34.31 -24.6,-25.08 -42.23,-54.17 -42.23,-90.44 V 994.25 h 321.5 c 106.43,0 194.05,83.65 198.98,189.96 l 75.16,1620.57 -288.64,425.08" /></g></g></svg>